<svg class="splash-logo" xmlns="http://www.w3.org/2000/svg" xmlns:xlink="http://www.w3.org/1999/xlink" xml:space="preserve" viewBox="0 0 1441.9 572.2"><style>.st9{fill:#fff}</style><g id="Layer_1"><linearGradient id="SVGID_1_" x1="400.192" x2="400.192" y1="130.237" y2="165.703" gradientUnits="userSpaceOnUse"><stop offset="0" stop-color="#1d1d1b"></stop><stop offset="1" stop-color="#dcdfe4" stop-opacity=".25"></stop></linearGradient><path fill="url(#SVGID_1_)" d="M395.3 135s3.8-1.2 9.9-2.3v38.1h-9.9V135z" opacity=".8"></path><linearGradient id="SVGID_00000088090513436963188230000015830889823297118094_" x1="436.421" x2="436.421" y1="127.962" y2="165.418" gradientUnits="userSpaceOnUse"><stop offset="0" stop-color="#1d1d1b"></stop><stop offset="1" stop-color="#dcdfe4" stop-opacity=".25"></stop></linearGradient><path fill="url(#SVGID_00000088090513436963188230000015830889823297118094_)" d="M452.7 134v36.8h-9.9v-38.9c-4.2-.7-8.4-1.1-12.8-1.2v40.1h-9.9v-39.9c9.9-.7 21.6-.3 32.6 3.1z" opacity=".8"></path><linearGradient id="SVGID_00000090992995767004494610000016496833662917673860_" x1="388.28" x2="388.28" y1="343.748" y2="306.216" gradientUnits="userSpaceOnUse"><stop offset="0" stop-color="#1d1d1b"></stop><stop offset="1" stop-color="#dcdfe4" stop-opacity=".25"></stop></linearGradient><path fill="url(#SVGID_00000090992995767004494610000016496833662917673860_)" d="M393.2 302.4V340c-1-.3-2-.5-3-.8-.4-.1-.7-.2-1-.3-1.2-.4-2.4-.9-3.6-1.4-.1 0-.2-.1-.3-.1-.7-.3-1.3-.6-2-1v-34.1h9.9z" opacity=".4"></path><linearGradient id="SVGID_00000000212849040479905670000010894911573907511996_" x1="337.669" x2="354.002" y1="209.125" y2="225.459" gradientUnits="userSpaceOnUse"><stop offset="0" stop-color="#fff"></stop><stop offset=".605" stop-color="#e7e8ec" stop-opacity=".395"></stop><stop offset="1" stop-color="#dcdfe4" stop-opacity="0"></stop></linearGradient><circle cx="349.6" cy="221.1" r="12.2" fill="url(#SVGID_00000000212849040479905670000010894911573907511996_)"></circle><linearGradient id="SVGID_00000145030009700482675510000008338450872874879657_" x1="447.548" x2="463.882" y1="259.115" y2="275.448" gradientUnits="userSpaceOnUse"><stop offset="0" stop-color="#fff"></stop><stop offset=".229" stop-color="#f3f4f6" stop-opacity=".771"></stop><stop offset=".67" stop-color="#e2e4e8" stop-opacity=".33"></stop><stop offset="1" stop-color="#dcdfe4" stop-opacity="0"></stop></linearGradient><circle cx="459.5" cy="271.1" r="12.2" fill="url(#SVGID_00000145030009700482675510000008338450872874879657_)"></circle><linearGradient id="SVGID_00000038402977546234591350000002427525563298450325_" x1="412.916" x2="429.25" y1="295.498" y2="311.832" gradientUnits="userSpaceOnUse"><stop offset="0" stop-color="#fff"></stop><stop offset=".229" stop-color="#f3f4f6" stop-opacity=".771"></stop><stop offset=".67" stop-color="#e2e4e8" stop-opacity=".33"></stop><stop offset="1" stop-color="#dcdfe4" stop-opacity="0"></stop></linearGradient><circle cx="424.9" cy="307.5" r="12.2" fill="url(#SVGID_00000038402977546234591350000002427525563298450325_)"></circle><linearGradient id="SVGID_00000124872641491890415630000003153175296637239168_" x1="353.963" x2="370.297" y1="253.472" y2="269.806" gradientUnits="userSpaceOnUse"><stop offset="0" stop-color="#fff"></stop><stop offset=".229" stop-color="#f3f4f6" stop-opacity=".771"></stop><stop offset=".67" stop-color="#e2e4e8" stop-opacity=".33"></stop><stop offset="1" stop-color="#dcdfe4" stop-opacity="0"></stop></linearGradient><circle cx="365.9" cy="265.4" r="12.2" fill="url(#SVGID_00000124872641491890415630000003153175296637239168_)"></circle><linearGradient id="SVGID_00000084492048516312510280000010958016349508207767_" x1="391.563" x2="547.596" y1="129.722" y2="622.297" gradientUnits="userSpaceOnUse"><stop offset="0" stop-color="#0eb8db"></stop><stop offset="1" stop-color="#dcdfe4" stop-opacity=".25"></stop></linearGradient><path fill="url(#SVGID_00000084492048516312510280000010958016349508207767_)" d="M390.9 339.4c-.2-.1-.5-.1-.7-.2-.4-.1-.7-.2-1-.3 1.3.5 2.7 1 4 1.3v-.2c-.8-.2-1.5-.4-2.3-.6zm2.1-75.5c-.6-2.1-2.5-3.7-4.7-3.7h-11.1c-1.9-4.3-6.2-7.3-11.2-7.3-6.8 0-12.3 5.5-12.3 12.2 0 4.6 2.5 8.6 6.2 10.7 1.8 1 3.9 1.6 6.1 1.6 5 0 9.3-3 11.2-7.3h6.2v32.2h9.9v-37.2c-.1-.3-.1-.8-.3-1.2zm104.7-62.3c-5 0-9.3 3-11.2 7.3h-33.8v-38.2h-9.9v43.1c0 2.7 2.2 4.9 4.9 4.9h38.8c1.9 4.3 6.2 7.3 11.2 7.3 6.8 0 12.2-5.5 12.2-12.3s-5.4-12.1-12.2-12.1zm-61.4 100.8c-1.3-2.8-3.5-5-6.3-6.2V170.8h-9.9v125.4c-2.8 1.2-5 3.5-6.3 6.2-.1.1-.1.3-.2.4-.6 1.4-.9 2.9-.9 4.5 0 6.8 5.5 12.3 12.2 12.3 4.5 0 8.5-2.5 10.6-6.1 1.1-1.8 1.6-3.9 1.6-6.2.3-1.7-.1-3.4-.8-4.9zm-41-131.6v45.4h-34.5c-1.9-4.3-6.2-7.3-11.2-7.3-6.8 0-12.3 5.5-12.3 12.3s5.5 12.2 12.3 12.2c5 0 9.3-3 11.2-7.3h39.4c2.7 0 4.9-2.2 4.9-4.9v-50.3h-9.8zm-4.4 168.6c-.2-.1-.5-.1-.7-.2-.4-.1-.7-.2-1-.3 1.3.5 2.7 1 4 1.3l-2.3-.8zm106.8-137.8c-5 0-9.3 3-11.2 7.3h-33.8v-38.2h-9.9v43.1c0 2.7 2.2 4.9 4.9 4.9h38.8c1.9 4.3 6.2 7.3 11.2 7.3 6.8 0 12.2-5.5 12.2-12.3s-5.4-12.1-12.2-12.1zm-61.4 100.8c-1.3-2.8-3.5-5-6.3-6.2V170.8h-9.9v125.4c-2.8 1.2-5 3.5-6.3 6.2-.1.1-.1.3-.2.4-.6 1.4-.9 2.9-.9 4.5 0 6.8 5.5 12.3 12.2 12.3 4.5 0 8.5-2.5 10.6-6.1 1.1-1.8 1.6-3.9 1.6-6.2.3-1.7-.1-3.4-.8-4.9zm-41-131.6v45.4h-34.5c-1.9-4.3-6.2-7.3-11.2-7.3-6.8 0-12.3 5.5-12.3 12.3s5.5 12.2 12.3 12.2c5 0 9.3-3 11.2-7.3h39.4c2.7 0 4.9-2.2 4.9-4.9v-50.3h-9.8zM387.1 338l3.8 1.4 2.3.8V338h-6.1zm1.2-77.7h-11.1c-1.9-4.3-6.2-7.3-11.2-7.3-6.8 0-12.3 5.5-12.3 12.2 0 4.6 2.5 8.6 6.2 10.7V264H393c-.5-2.2-2.4-3.7-4.7-3.7zm37.6-162.7c-77.5 0-140.3 62.8-140.3 140.3s62.8 140.3 140.3 140.3c77.5 0 140.3-62.8 140.3-140.3S503.3 97.6 425.9 97.6zM387 338c-.5-.2-.9-.3-1.4-.5l1.4.5 3.9 1.4c-.2-.1-.5-.1-.7-.2-.4-.1-.7-.2-1-.3-.8-.3-1.5-.6-2.2-.9zm72.5-54.7c6.8 0 12.2-5.5 12.2-12.3 0-5-3-9.3-7.3-11.2v-6.4h67.7c-7.5 51.9-52.3 91.9-106.3 91.9-11.4 0-22.3-1.8-32.6-5.1v-75c0-.5-.1-.9-.2-1.3-.6-2.1-2.5-3.7-4.7-3.7h-11.1c-1.9-4.3-6.2-7.3-11.2-7.3-6.8 0-12.3 5.5-12.3 12.2 0 4.6 2.5 8.6 6.2 10.7 1.8 1 3.9 1.6 6.1 1.6 5 0 9.3-3 11.2-7.3h6.2v66.4c-8.4-3.7-16.3-8.3-23.4-13.9-25.2-19.7-41.5-50.3-41.5-84.7 0-48.6 32.4-89.7 76.8-102.9v81.1h-34.5c-1.9-4.3-6.2-7.3-11.2-7.3-6.8 0-12.3 5.5-12.3 12.3s5.5 12.2 12.3 12.2c5 0 9.3-3 11.2-7.3h39.4c2.7 0 4.9-2.2 4.9-4.9v-88.5c4.9-1 9.9-1.6 15-1.9v165.4c-2.8 1.2-5 3.5-6.3 6.2-.1.1-.1.3-.2.4-.6 1.4-.9 2.9-.9 4.5 0 6.8 5.5 12.3 12.2 12.3 4.5 0 8.5-2.5 10.6-6.1 1.1-1.8 1.6-3.9 1.6-6.2 0-1.8-.4-3.5-1.1-5-1.3-2.8-3.5-5-6.3-6.2V130.7c4.3.2 8.6.6 12.8 1.2v82c0 2.7 2.2 4.9 4.9 4.9h38.8c1.9 4.3 6.2 7.3 11.2 7.3 6.8 0 12.2-5.5 12.2-12.3s-5.5-12.2-12.2-12.2c-5 0-9.3 3-11.2 7.3h-33.8v-75c46.3 11.9 80.6 54 80.6 104 0 1.9 0 3.8-.1 5.6h-73.6c-2.7 0-4.9 2.2-4.9 4.9v11.3c-4.3 1.9-7.3 6.2-7.3 11.2.1 6.9 5.6 12.4 12.4 12.4zm-71.2-23h-11.1c-1.9-4.3-6.2-7.3-11.2-7.3-6.8 0-12.3 5.5-12.3 12.2 0 4.6 2.5 8.6 6.2 10.7V264H393c-.5-2.2-2.4-3.7-4.7-3.7zm-1.2 77.7 3.8 1.4 2.3.8V338h-6.1zm8.2-167.2v45.4h-34.5c-1.9-4.3-6.2-7.3-11.2-7.3-6.8 0-12.3 5.5-12.3 12.3s5.5 12.2 12.3 12.2c5 0 9.3-3 11.2-7.3h39.4c2.7 0 4.9-2.2 4.9-4.9v-50.3h-9.8zm41 131.6c-1.3-2.8-3.5-5-6.3-6.2V170.8h-9.9v125.4c-2.8 1.2-5 3.5-6.3 6.2-.1.1-.1.3-.2.4-.6 1.4-.9 2.9-.9 4.5 0 6.8 5.5 12.3 12.2 12.3 4.5 0 8.5-2.5 10.6-6.1 1.1-1.8 1.6-3.9 1.6-6.2.3-1.7-.1-3.4-.8-4.9zm61.4-100.8c-5 0-9.3 3-11.2 7.3h-33.8v-38.2h-9.9v43.1c0 2.7 2.2 4.9 4.9 4.9h38.8c1.9 4.3 6.2 7.3 11.2 7.3 6.8 0 12.2-5.5 12.2-12.3s-5.4-12.1-12.2-12.1zm-102.4-30.8v45.4h-34.5c-1.9-4.3-6.2-7.3-11.2-7.3-6.8 0-12.3 5.5-12.3 12.3s5.5 12.2 12.3 12.2c5 0 9.3-3 11.2-7.3h39.4c2.7 0 4.9-2.2 4.9-4.9v-50.3h-9.8zm41 131.6c-1.3-2.8-3.5-5-6.3-6.2V170.8h-9.9v125.4c-2.8 1.2-5 3.5-6.3 6.2-.1.1-.1.3-.2.4-.6 1.4-.9 2.9-.9 4.5 0 6.8 5.5 12.3 12.2 12.3 4.5 0 8.5-2.5 10.6-6.1 1.1-1.8 1.6-3.9 1.6-6.2.3-1.7-.1-3.4-.8-4.9zm61.4-100.8c-5 0-9.3 3-11.2 7.3h-33.8v-38.2h-9.9v43.1c0 2.7 2.2 4.9 4.9 4.9h38.8c1.9 4.3 6.2 7.3 11.2 7.3 6.8 0 12.2-5.5 12.2-12.3s-5.4-12.1-12.2-12.1zM393 263.9c-.6-2.1-2.5-3.7-4.7-3.7h-11.1c-1.9-4.3-6.2-7.3-11.2-7.3-6.8 0-12.3 5.5-12.3 12.2 0 4.6 2.5 8.6 6.2 10.7 1.8 1 3.9 1.6 6.1 1.6 5 0 9.3-3 11.2-7.3h6.2v32.2h9.9v-37.2c-.1-.3-.1-.8-.3-1.2zm-2.1 75.5c-.2-.1-.5-.1-.7-.2-.4-.1-.7-.2-1-.3 1.3.5 2.7 1 4 1.3v-.2c-.8-.2-1.5-.4-2.3-.6z"></path><linearGradient id="SVGID_00000176734413200368614710000006967424390594906552_" x1="485.755" x2="502.088" y1="202.031" y2="218.365" gradientUnits="userSpaceOnUse"><stop offset="0" stop-color="#fff"></stop><stop offset=".229" stop-color="#f3f4f6" stop-opacity=".771"></stop><stop offset=".67" stop-color="#e2e4e8" stop-opacity=".33"></stop><stop offset="1" stop-color="#dcdfe4" stop-opacity="0"></stop></linearGradient><circle cx="497.7" cy="214" r="12.2" fill="url(#SVGID_00000176734413200368614710000006967424390594906552_)"></circle><path d="M203 210v-15.6c0-15-2.8-25.3-8.5-30.8s-16.5-8.3-32.4-8.3H63.3c-16.1 0-26.9 2.8-32.5 8.3-5.7 5.5-8.5 15.8-8.5 30.8v87.1c0 15.1 2.8 25.4 8.5 30.9 5.6 5.5 16.5 8.2 32.5 8.2H162c16 0 26.8-2.7 32.4-8.2 5.7-5.5 8.5-15.8 8.5-30.9v-29.8l-38.5 8.8v29H60.8V184.9h103.7v31.3L203 210zM774.9 258.2h21.6c13.2 0 22.7-2.6 28.6-7.7 5.9-5.1 8.8-13.3 8.8-24.4v-38.8c0-11.3-2.9-19.4-8.8-24.5-5.9-5.1-15.4-7.6-28.6-7.6H655.1v165.3h37.8v-62.4h36.5l66.6 62.4h55.2l-76.3-62.3zm-65.2-28.3-16.8 16.8v-62.8h86.5c6.7 0 11.3 1 13.7 2.9 2.5 1.9 3.7 5.3 3.7 10.1v19.8c0 4.9-1.2 8.3-3.7 10.3-2.4 1.9-7 2.9-13.7 2.9h-69.7zM1007 289.5v-41h76.3v-28.1H1007v-36.9h130.6l-28.2-28.2H968.6v165.3h170.8v-31.1H1007zM1305.5 185v-.8h128.7v-29H1267v165.3h38.5v-62.7h69.6v-30.2h-51.2l-19 19v-62.8l.6 1.2z" class="st9"></path><defs><path id="SVGID_00000178925423944781698390000011526132253555131016_" d="M390.9 339.4c-.2-.1-.5-.1-.7-.2-.4-.1-.7-.2-1-.3 1.3.5 2.7 1 4 1.3v-.2c-.8-.2-1.5-.4-2.3-.6zm2.1-75.5c-.6-2.1-2.5-3.7-4.7-3.7h-11.1c-1.9-4.3-6.2-7.3-11.2-7.3-6.8 0-12.3 5.5-12.3 12.2 0 4.6 2.5 8.6 6.2 10.7 1.8 1 3.9 1.6 6.1 1.6 5 0 9.3-3 11.2-7.3h6.2v32.2h9.9v-37.2c-.1-.3-.1-.8-.3-1.2zm104.7-62.3c-5 0-9.3 3-11.2 7.3h-33.8v-38.2h-9.9v43.1c0 2.7 2.2 4.9 4.9 4.9h38.8c1.9 4.3 6.2 7.3 11.2 7.3 6.8 0 12.2-5.5 12.2-12.3s-5.4-12.1-12.2-12.1zm-61.4 100.8c-1.3-2.8-3.5-5-6.3-6.2V170.8h-9.9v125.4c-2.8 1.2-5 3.5-6.3 6.2-.1.1-.1.3-.2.4-.6 1.4-.9 2.9-.9 4.5 0 6.8 5.5 12.3 12.2 12.3 4.5 0 8.5-2.5 10.6-6.1 1.1-1.8 1.6-3.9 1.6-6.2.3-1.7-.1-3.4-.8-4.9zm-41-131.6v45.4h-34.5c-1.9-4.3-6.2-7.3-11.2-7.3-6.8 0-12.3 5.5-12.3 12.3s5.5 12.2 12.3 12.2c5 0 9.3-3 11.2-7.3h39.4c2.7 0 4.9-2.2 4.9-4.9v-50.3h-9.8zm-4.4 168.6c-.2-.1-.5-.1-.7-.2-.4-.1-.7-.2-1-.3 1.3.5 2.7 1 4 1.3l-2.3-.8zm106.8-137.8c-5 0-9.3 3-11.2 7.3h-33.8v-38.2h-9.9v43.1c0 2.7 2.2 4.9 4.9 4.9h38.8c1.9 4.3 6.2 7.3 11.2 7.3 6.8 0 12.2-5.5 12.2-12.3s-5.4-12.1-12.2-12.1zm-61.4 100.8c-1.3-2.8-3.5-5-6.3-6.2V170.8h-9.9v125.4c-2.8 1.2-5 3.5-6.3 6.2-.1.1-.1.3-.2.4-.6 1.4-.9 2.9-.9 4.5 0 6.8 5.5 12.3 12.2 12.3 4.5 0 8.5-2.5 10.6-6.1 1.1-1.8 1.6-3.9 1.6-6.2.3-1.7-.1-3.4-.8-4.9zm-41-131.6v45.4h-34.5c-1.9-4.3-6.2-7.3-11.2-7.3-6.8 0-12.3 5.5-12.3 12.3s5.5 12.2 12.3 12.2c5 0 9.3-3 11.2-7.3h39.4c2.7 0 4.9-2.2 4.9-4.9v-50.3h-9.8zM387.1 338l3.8 1.4 2.3.8V338h-6.1zm1.2-77.7h-11.1c-1.9-4.3-6.2-7.3-11.2-7.3-6.8 0-12.3 5.5-12.3 12.2 0 4.6 2.5 8.6 6.2 10.7V264H393c-.5-2.2-2.4-3.7-4.7-3.7zm37.6-162.7c-77.5 0-140.3 62.8-140.3 140.3s62.8 140.3 140.3 140.3c77.5 0 140.3-62.8 140.3-140.3S503.3 97.6 425.9 97.6zM387 338c-.5-.2-.9-.3-1.4-.5l1.4.5 3.9 1.4c-.2-.1-.5-.1-.7-.2-.4-.1-.7-.2-1-.3-.8-.3-1.5-.6-2.2-.9zm72.5-54.7c6.8 0 12.2-5.5 12.2-12.3 0-5-3-9.3-7.3-11.2v-6.4h67.7c-7.5 51.9-52.3 91.9-106.3 91.9-11.4 0-22.3-1.8-32.6-5.1v-75c0-.5-.1-.9-.2-1.3-.6-2.1-2.5-3.7-4.7-3.7h-11.1c-1.9-4.3-6.2-7.3-11.2-7.3-6.8 0-12.3 5.5-12.3 12.2 0 4.6 2.5 8.6 6.2 10.7 1.8 1 3.9 1.6 6.1 1.6 5 0 9.3-3 11.2-7.3h6.2v66.4c-8.4-3.7-16.3-8.3-23.4-13.9-25.2-19.7-41.5-50.3-41.5-84.7 0-48.6 32.4-89.7 76.8-102.9v81.1h-34.5c-1.9-4.3-6.2-7.3-11.2-7.3-6.8 0-12.3 5.5-12.3 12.3s5.5 12.2 12.3 12.2c5 0 9.3-3 11.2-7.3h39.4c2.7 0 4.9-2.2 4.9-4.9v-88.5c4.9-1 9.9-1.6 15-1.9v165.4c-2.8 1.2-5 3.5-6.3 6.2-.1.1-.1.3-.2.4-.6 1.4-.9 2.9-.9 4.5 0 6.8 5.5 12.3 12.2 12.3 4.5 0 8.5-2.5 10.6-6.1 1.1-1.8 1.6-3.9 1.6-6.2 0-1.8-.4-3.5-1.1-5-1.3-2.8-3.5-5-6.3-6.2V130.7c4.3.2 8.6.6 12.8 1.2v82c0 2.7 2.2 4.9 4.9 4.9h38.8c1.9 4.3 6.2 7.3 11.2 7.3 6.8 0 12.2-5.5 12.2-12.3s-5.5-12.2-12.2-12.2c-5 0-9.3 3-11.2 7.3h-33.8v-75c46.3 11.9 80.6 54 80.6 104 0 1.9 0 3.8-.1 5.6h-73.6c-2.7 0-4.9 2.2-4.9 4.9v11.3c-4.3 1.9-7.3 6.2-7.3 11.2.1 6.9 5.6 12.4 12.4 12.4zm-71.2-23h-11.1c-1.9-4.3-6.2-7.3-11.2-7.3-6.8 0-12.3 5.5-12.3 12.2 0 4.6 2.5 8.6 6.2 10.7V264H393c-.5-2.2-2.4-3.7-4.7-3.7zm-1.2 77.7 3.8 1.4 2.3.8V338h-6.1zm8.2-167.2v45.4h-34.5c-1.9-4.3-6.2-7.3-11.2-7.3-6.8 0-12.3 5.5-12.3 12.3s5.5 12.2 12.3 12.2c5 0 9.3-3 11.2-7.3h39.4c2.7 0 4.9-2.2 4.9-4.9v-50.3h-9.8zm41 131.6c-1.3-2.8-3.5-5-6.3-6.2V170.8h-9.9v125.4c-2.8 1.2-5 3.5-6.3 6.2-.1.1-.1.3-.2.4-.6 1.4-.9 2.9-.9 4.5 0 6.8 5.5 12.3 12.2 12.3 4.5 0 8.5-2.5 10.6-6.1 1.1-1.8 1.6-3.9 1.6-6.2.3-1.7-.1-3.4-.8-4.9zm61.4-100.8c-5 0-9.3 3-11.2 7.3h-33.8v-38.2h-9.9v43.1c0 2.7 2.2 4.9 4.9 4.9h38.8c1.9 4.3 6.2 7.3 11.2 7.3 6.8 0 12.2-5.5 12.2-12.3s-5.4-12.1-12.2-12.1zm-102.4-30.8v45.4h-34.5c-1.9-4.3-6.2-7.3-11.2-7.3-6.8 0-12.3 5.5-12.3 12.3s5.5 12.2 12.3 12.2c5 0 9.3-3 11.2-7.3h39.4c2.7 0 4.9-2.2 4.9-4.9v-50.3h-9.8zm41 131.6c-1.3-2.8-3.5-5-6.3-6.2V170.8h-9.9v125.4c-2.8 1.2-5 3.5-6.3 6.2-.1.1-.1.3-.2.4-.6 1.4-.9 2.9-.9 4.5 0 6.8 5.5 12.3 12.2 12.3 4.5 0 8.5-2.5 10.6-6.1 1.1-1.8 1.6-3.9 1.6-6.2.3-1.7-.1-3.4-.8-4.9zm61.4-100.8c-5 0-9.3 3-11.2 7.3h-33.8v-38.2h-9.9v43.1c0 2.7 2.2 4.9 4.9 4.9h38.8c1.9 4.3 6.2 7.3 11.2 7.3 6.8 0 12.2-5.5 12.2-12.3s-5.4-12.1-12.2-12.1zM393 263.9c-.6-2.1-2.5-3.7-4.7-3.7h-11.1c-1.9-4.3-6.2-7.3-11.2-7.3-6.8 0-12.3 5.5-12.3 12.2 0 4.6 2.5 8.6 6.2 10.7 1.8 1 3.9 1.6 6.1 1.6 5 0 9.3-3 11.2-7.3h6.2v32.2h9.9v-37.2c-.1-.3-.1-.8-.3-1.2zm-2.1 75.5c-.2-.1-.5-.1-.7-.2-.4-.1-.7-.2-1-.3 1.3.5 2.7 1 4 1.3v-.2c-.8-.2-1.5-.4-2.3-.6z"></path></defs><clipPath id="SVGID_00000152227411604990354550000016398211208924696712_"><use xlink:href="#SVGID_00000178925423944781698390000011526132253555131016_" overflow="visible"></use></clipPath><linearGradient id="SVGID_00000000213664556358550560000000970214536382596006_" x1="497.939" x2="361.795" y1="389.832" y2="118.854" gradientUnits="userSpaceOnUse"><stop offset="0" stop-color="#0a0c1b"></stop><stop offset="1" stop-color="#0a0c1b" stop-opacity="0"></stop></linearGradient><path fill="url(#SVGID_00000000213664556358550560000000970214536382596006_)" d="M256.9 394H582c26.9 0 48.7-21.8 48.7-48.7V122c0-26.9-21.8-48.7-48.7-48.7H256.9c-26.9 0-48.7 21.8-48.7 48.7v223.3c0 26.9 21.8 48.7 48.7 48.7z" clip-path="url(#SVGID_00000152227411604990354550000016398211208924696712_)" opacity=".6"></path></g></svg>